<svg xmlns="http://www.w3.org/2000/svg" width="250" height="75" viewBox="0 0 250 75">
  <defs>
    <style>
      .cls-1 {
        stroke: #fab3ff;
        stroke-linejoin: round;
        stroke-width: 2px;
        fill-rule: evenodd;
      }
    </style>
  </defs>
  <path id="rivenshii" class="cls-1" d="M19.381,20.887q-5.412,4.3-5.412,4.571a1.038,1.038,0,0,0,.962.842l1.924-1.323H17.1a2.548,2.548,0,0,1,.842.962q0.6,0,.6,8.78,0,6.916-.6,12.99a9.654,9.654,0,0,0-2.045,2.285v0.12a11.616,11.616,0,0,0,2.766,1.2,32.792,32.792,0,0,1,6.254,4.33h0.12a5.592,5.592,0,0,0,1.082-.842,38.888,38.888,0,0,0,7.337-6.254V48.43a0.794,0.794,0,0,0-.842-0.481h-0.24a2.433,2.433,0,0,0-1.564.962,8.759,8.759,0,0,0-1.564,1.323h-0.12A0.932,0.932,0,0,0,29,49.874a10,10,0,0,1-3.127-2.766l0.361-19.485a18.612,18.612,0,0,1,2.526-2.165,4.074,4.074,0,0,1,1.564,3.608v0.722a13.18,13.18,0,0,1-.361,3.248l0.241,0.12h0.481q5.773-3.578,5.773-6.134V25.457q0-2.706-3.488-6.134-5.654,4.691-6.5,5.292h-0.12a11,11,0,0,0-5.052-5.292Zm19.034,3.548a9.351,9.351,0,0,0,2.045,1.925q0.361,12.419.361,18.162V45.6a8.337,8.337,0,0,1-.361,2.165,3.573,3.573,0,0,1-1.924,1.924,52.364,52.364,0,0,0,6.976,6.014h0.241a42.319,42.319,0,0,0,7.1-5.894v-0.12A6.651,6.651,0,0,0,51.4,48.25H50.563a2.07,2.07,0,0,0-1.443,1.082H48.759a3.183,3.183,0,0,1-.6-0.481q-0.12-3.548-.12-4.57,0-4.811-.12-17.2l0.12-.241a10.634,10.634,0,0,0,2.045-2.285V24.315a46.1,46.1,0,0,0-6.134-4.45,25.3,25.3,0,0,0-5.533,4.571h0ZM39.558,11.2a64.544,64.544,0,0,0,4.631,4.631q0.15,0,4.6-4.631,0-.15-4.6-4.6a64.394,64.394,0,0,0-4.631,4.6h0ZM60.7,10.783q-7.217,4.09-7.217,8.66,0,3.4,3.248,8.059l0.241,10.584q-0.12,5.2-.481,9.5,0,0.391-1.684,1.8v0.722q5.833,0,12.509,5.533h0.6a2.778,2.778,0,0,0,.842-0.722,35.412,35.412,0,0,1,9.983-5.292q0.15-.03.241-22.011a9.4,9.4,0,0,0,.361-1.564V25.818q-4.15-5.412-6.134-6.254h-0.12l-4.57,3.368q1.2,1.474,1.564,2.045-0.121,9.953-.12,16.117v4.09l-6.976-2.766q0-3.7.12-17.561a0.7,0.7,0,0,0,.6-0.481,4.63,4.63,0,0,0-.842-1.684q-4.21-4.3-4.21-6.014v-0.6a5.382,5.382,0,0,1,.241-1.443L61.779,11.5l-0.6-.842a0.954,0.954,0,0,0-.481.12h0ZM81.625,26.3q0,1.083,2.165,1.323,0.722,0,.722,10.825,0,4.992-.481,10.464A6.86,6.86,0,0,0,82.346,50.6l0.12,0.6q0.03,0.211,3.007.842l7.938,3.608a63.058,63.058,0,0,0,10.224-7.457,2.4,2.4,0,0,0-1.564-1.083,3,3,0,0,0-1.323.241,25.724,25.724,0,0,1-4.33,2.646,29.211,29.211,0,0,1-2.766-1.2,2.74,2.74,0,0,1-2.165-3.007q0.24-2.736.24-3.368l-0.12-.842a17.569,17.569,0,0,0,2.045-1.924,148.634,148.634,0,0,0,11.306-9.983v-0.6q-2.376-2.225-9.623-9.983Zm15.636,5.894v0.12Q96.78,32.554,91.848,37q-0.361-3.818-.361-8.059V28.224q0-.631.12-2.045,3.759,3.879,5.653,6.014h0Zm21.981-7.337q0-1.5-4.33-5.172H114.07q-5.925,4.721-6.616,5.172a0.944,0.944,0,0,0,.722.962,11.5,11.5,0,0,1,1.8-.6h0.241a4.085,4.085,0,0,1,1.323,1.443v5.894q0,5.5.12,15.275L109.018,50.6a36.222,36.222,0,0,0,5.773,5.052h0.241l6.014-4.571q0-.782-2.285-3.007V33.516q0-1.864.12-5.052a41.066,41.066,0,0,0,3.728-3.007q2.736,2.376,3.729,3.127,0,5.052.12,11.787a91.423,91.423,0,0,1-.6,9.983V50.6q1.112,2.406,4.931,5.052h0.241q4.99-3.909,7.217-5.894V49.393a1.007,1.007,0,0,0-.6-0.962H137.4a4.544,4.544,0,0,1-2.165,1.082,3.689,3.689,0,0,1-1.444-1.8q-0.12-9.893-.12-13.11a75.351,75.351,0,0,1,.6-8.54q-5.141-5.292-5.292-5.292a3.065,3.065,0,0,0-2.646-1.443,42.417,42.417,0,0,1-7.1,5.533h0ZM155.505,20.1q-10.7,6.585-10.7,9.8a14.459,14.459,0,0,0,2.285,8.059q17.8,6.856,17.8,10.314a4.33,4.33,0,0,0-.661,1.864v0.6q-8.721-3.668-11.4-3.669h-2.014q-7.488,0-10.044,6.1,1.053,1.865,2.015,1.864h1.323l-0.661-1.233V53.181a1.252,1.252,0,0,1,1.353-1.2h3.337q4,0,10.074,3.668,5.562,0,11.4-7.367v-6.1a6.56,6.56,0,0,0-2.015-4.3q-14.4-6.856-16.087-9.2V26.209a1.236,1.236,0,0,1,1.323-1.2h0.692a15.634,15.634,0,0,0,8.028,2.436q2.917,0,8.059-2.436v-4.3h-1.353q0,2.466-1.353,2.466a11.216,11.216,0,0,1-8.69-3.7,20.282,20.282,0,0,1-2.707.632h0ZM180.824,8.137L174.449,10.9q-0.12,20.147-.12,29.468V48.43l-2.406,2.405a28.392,28.392,0,0,0,5.894,4.811h0.361q1.263-.15,6.134-4.571l-2.165-2.887V30.268q4.721-3.518,6.134-4.33a6.619,6.619,0,0,1,1.564,4.811v1.2l0.12,0.241h-0.12q-0.121,4.36-.12,6.615-0.482.061-.482,0.361v0.12a0.928,0.928,0,0,1,.361.12,0.923,0.923,0,0,1-.12.361q0,1.023.12,5.533a3.7,3.7,0,0,1-2.285,3.729v0.842q0,0.12,5.292,2.406,3.308,2.767,3.729,2.766,2.465-1.173,6.735-5.533v-0.12a2.792,2.792,0,0,0-.721-0.842h-0.241a3.79,3.79,0,0,1-1.684.722h-0.361a23.739,23.739,0,0,1-2.886-2.045,6.323,6.323,0,0,1,.12-1.082q-0.12-3.338-.12-5.413a9.01,9.01,0,0,1,.24-1.925q0.12-6.434.121-7.7v-1.2q0-5.382-2.286-7.938a7.9,7.9,0,0,0-3.488-2.285l-5.292,4.21q-3.729,3.128-4.33,3.127V25.457q0-5.683.12-10.1l-0.24-7.337V7.9a2.934,2.934,0,0,0-1.2.241h0Zm24.687,16.3a9.353,9.353,0,0,0,2.045,1.925q0.36,12.419.361,18.162V45.6a8.36,8.36,0,0,1-.361,2.165,3.571,3.571,0,0,1-1.925,1.924,52.426,52.426,0,0,0,6.976,6.014h0.241a42.276,42.276,0,0,0,7.1-5.894v-0.12A6.663,6.663,0,0,0,218.5,48.25h-0.842a2.07,2.07,0,0,0-1.443,1.082h-0.361a3.17,3.17,0,0,1-.6-0.481q-0.121-3.548-.121-4.57,0-4.811-.12-17.2l0.12-.241a10.641,10.641,0,0,0,2.045-2.285V24.315a46.122,46.122,0,0,0-6.134-4.45,25.279,25.279,0,0,0-5.533,4.571h0ZM206.654,11.2a64.494,64.494,0,0,0,4.63,4.631q0.15,0,4.6-4.631,0-.15-4.6-4.6a64.449,64.449,0,0,0-4.63,4.6h0Zm14.313,13.231a9.357,9.357,0,0,0,2.044,1.925q0.362,12.419.361,18.162V45.6a8.318,8.318,0,0,1-.361,2.165,3.573,3.573,0,0,1-1.924,1.924,52.359,52.359,0,0,0,6.976,6.014H228.3a42.316,42.316,0,0,0,7.1-5.894v-0.12a6.663,6.663,0,0,0-1.443-1.443h-0.842a2.073,2.073,0,0,0-1.444,1.082h-0.36a3.156,3.156,0,0,1-.6-0.481q-0.12-3.548-.12-4.57,0-4.811-.12-17.2l0.12-.241a10.641,10.641,0,0,0,2.045-2.285V24.315a46.122,46.122,0,0,0-6.134-4.45,25.279,25.279,0,0,0-5.533,4.571h0ZM222.109,11.2a64.683,64.683,0,0,0,4.631,4.631q0.15,0,4.6-4.631,0-.15-4.6-4.6a64.557,64.557,0,0,0-4.631,4.6h0Z"/>
</svg>
