<svg xmlns="http://www.w3.org/2000/svg" width="250" height="75" viewBox="0 0 250 75">
  <defs>
    <style>
      .cls-1 {
        stroke: #fab3ff;
        stroke-linejoin: round;
        stroke-width: 2px;
        fill-rule: evenodd;
      }
    </style>
  </defs>
  <path id="spyroshii" class="cls-1" d="M15.627,20.385Q4.271,27.37,4.272,30.783A15.341,15.341,0,0,0,6.7,39.332Q25.579,46.6,25.58,50.273a4.594,4.594,0,0,0-.7,1.978v0.638Q15.627,49,12.789,49H10.651Q2.709,49,0,55.472q1.116,1.978,2.137,1.978h1.4l-0.7-1.308v-0.67A1.328,1.328,0,0,1,4.272,54.2H7.812q4.242,0,10.686,3.892,5.9,0,12.089-7.815V43.8a6.96,6.96,0,0,0-2.137-4.561q-15.28-7.273-17.065-9.761V26.86a1.311,1.311,0,0,1,1.4-1.276h0.734a16.585,16.585,0,0,0,8.517,2.584q3.094,0,8.549-2.584V21.023H29.152q0,2.616-1.435,2.616A11.9,11.9,0,0,1,18.5,19.715a21.529,21.529,0,0,1-2.871.67h0Zm31.579,3.764a70.6,70.6,0,0,0-5.231-5.869H41.848q-5.327,4.051-5.742,4.211v0.766l0.128,0.638q2.679,2.839,2.679,3.445V48.263q-5.87,3.828-5.869,8.166a0.113,0.113,0,0,0,.128.128q4.5-3.189,5.359-3.19a52.5,52.5,0,0,1,.51,7.4q-0.128,6.316-.128,8.166H39.3q7.3-5.615,7.656-5.614l-0.128-.638q0-1.914-.128-5.231,0-.383.255-2.552V54.771q0.446,0,3.955,2.935a13.225,13.225,0,0,0,2.935-2.3,48.285,48.285,0,0,1,8.931-6Q62.9,35.345,62.9,31.294a30.553,30.553,0,0,1,.383-6V24.914L62.39,23.893q-5.519-5.742-7.145-5.742Zm4.083,1.021h0.255q0.733,0,3.445,2.807,0.127,6.507.128,10.207v1.531q0,3.509-.128,9.825H54.862q-5.167-2.3-7.783-2.3,0.127-6.794.128-10.845V28.487q3.221-3.317,4.083-3.317h0Zm20.287-5.008a32.285,32.285,0,0,0-4.593,4.211q-2.552,1.755-2.552,2.679,0.383,1.148.893,1.148a3.117,3.117,0,0,1,1.021-.893h0.51a2.458,2.458,0,0,1,1.4.893L68,48.87a6.107,6.107,0,0,1-.766,1.786q-1.4.893-1.4,1.531a0.885,0.885,0,0,0,.383.51A18.728,18.728,0,0,1,70.3,55.249a27.378,27.378,0,0,0,4.083,3.062V58.184q1.275-1.148,10.335-7.017h0.128q0,5.519-.51,10.973,0.478,2.456,4.593,5.614h0.255q2.807-2.424,6.635-6.124V60.991a0.84,0.84,0,0,0-.638-0.893,5.6,5.6,0,0,1-1.914,1.148H93.012a3.472,3.472,0,0,1-1.276-1.914q0-4.593-.128-10.462,0.127-11.515.128-20.159a24.5,24.5,0,0,1,2.424-3.062,23.487,23.487,0,0,0-2.935-2.679q-2.361-2.552-3.445-2.552H87.525q-1.085.511-5.614,5.231a31.771,31.771,0,0,1,2.424,2.807Q84.208,38.5,83.953,47.338q-5.04,3.828-5.614,3.828H78.084q-0.83,0-2.552-1.914,0-2.839.383-21.053l2.3-2.552Q73.49,20.959,71.7,20.161H71.576Zm31.037,1.053q-5.741,4.562-5.742,4.849a1.1,1.1,0,0,0,1.021.893l2.041-1.4h0.255a2.707,2.707,0,0,1,.893,1.021q0.638,0,.638,9.314,0,7.337-.638,13.78a10.247,10.247,0,0,0-2.169,2.424v0.128a12.328,12.328,0,0,0,2.935,1.276,34.788,34.788,0,0,1,6.634,4.593h0.128a5.926,5.926,0,0,0,1.148-.893,41.214,41.214,0,0,0,7.783-6.635V50.433a0.841,0.841,0,0,0-.893-0.51h-0.255a2.582,2.582,0,0,0-1.659,1.021,9.279,9.279,0,0,0-1.658,1.4h-0.128a1,1,0,0,0-.127-0.383,10.608,10.608,0,0,1-3.318-2.935l0.383-20.67a19.761,19.761,0,0,1,2.679-2.3,4.321,4.321,0,0,1,1.659,3.828v0.766a13.991,13.991,0,0,1-.383,3.445l0.255,0.128h0.511q6.124-3.8,6.124-6.507V26.063q0-2.871-3.7-6.507-6,4.976-6.89,5.614h-0.128a11.671,11.671,0,0,0-5.358-5.614Zm27.815,2.424a44.172,44.172,0,0,0-6.252,3.19,6.464,6.464,0,0,0,.128,1.021q0,2.744.127,11.866a98.511,98.511,0,0,1-.51,10.08,8.1,8.1,0,0,0-1.531,2.169l0.128,0.638q4.815,0,13.779,5.486h0.256q1.722-1.212,3.7-2.424,6.315-2.967,7.017-3.445V35.5q0-2.169.256-9.314V25.935a63.6,63.6,0,0,1-12.377-5.614h-0.255q-4.467,3.19-4.466,3.317h0Zm7.783,5.486q1.4,0,1.4,2.041V51.581l-7.4-2.807V30.145q0-1.084-.127-3.445,4.721,1.787,6.124,2.424h0Zm27.4-8.74q-11.357,6.986-11.356,10.4a15.344,15.344,0,0,0,2.424,8.549q18.883,7.273,18.884,10.941a4.6,4.6,0,0,0-.7,1.978v0.638Q165.611,49,162.773,49h-2.137q-7.942,0-10.654,6.475,1.116,1.978,2.137,1.978h1.4l-0.7-1.308v-0.67a1.328,1.328,0,0,1,1.435-1.276H157.8q4.242,0,10.685,3.892,5.9,0,12.09-7.815V43.8a6.962,6.962,0,0,0-2.137-4.561q-15.281-7.273-17.066-9.761V26.86a1.312,1.312,0,0,1,1.4-1.276h0.733a16.587,16.587,0,0,0,8.517,2.584q3.095,0,8.549-2.584V21.023h-1.436q0,2.616-1.435,2.616a11.9,11.9,0,0,1-9.219-3.923,21.514,21.514,0,0,1-2.87.67h0Zm26.858-12.7-6.763,2.935Q185.58,32,185.58,41.884v8.549l-2.552,2.552a30.085,30.085,0,0,0,6.252,5.1h0.383q1.339-.159,6.507-4.849l-2.3-3.062V31.166q5.008-3.732,6.507-4.593a7.019,7.019,0,0,1,1.659,5.1v1.276l0.128,0.255h-0.128q-0.127,4.625-.127,7.018-0.512.064-.511,0.383v0.128a0.986,0.986,0,0,1,.383.128,0.982,0.982,0,0,1-.128.383q0,1.085.128,5.869a3.923,3.923,0,0,1-2.424,3.955v0.893q0,0.128,5.614,2.552,3.508,2.935,3.955,2.935,2.616-1.244,7.145-5.869V51.453a2.967,2.967,0,0,0-.765-0.893h-0.255a4.024,4.024,0,0,1-1.787.766h-0.383a25.208,25.208,0,0,1-3.062-2.169,6.7,6.7,0,0,1,.128-1.148q-0.127-3.541-.128-5.742a9.542,9.542,0,0,1,.255-2.041q0.127-6.826.128-8.166V30.783q0-5.71-2.424-8.421a8.385,8.385,0,0,0-3.7-2.424L198.467,24.4q-3.956,3.318-4.594,3.317V26.063q0-6.029.128-10.718l-0.255-7.783V7.434a3.111,3.111,0,0,0-1.276.255h0Zm26.188,17.289a9.93,9.93,0,0,0,2.169,2.041q0.382,13.174.383,19.266v1.148a8.852,8.852,0,0,1-.383,2.3,3.79,3.79,0,0,1-2.041,2.041q5.613,5.359,7.4,6.38h0.255a44.876,44.876,0,0,0,7.528-6.252V51.772a7.067,7.067,0,0,0-1.531-1.531h-0.893a2.194,2.194,0,0,0-1.531,1.148h-0.383a3.375,3.375,0,0,1-.638-0.51q-0.127-3.764-.128-4.849,0-5.1-.127-18.246l0.127-.255a11.276,11.276,0,0,0,2.169-2.424V24.85a48.908,48.908,0,0,0-6.507-4.721,26.845,26.845,0,0,0-5.869,4.849h0Zm1.212-14.035a68.429,68.429,0,0,0,4.912,4.912q0.16,0,4.881-4.912,0-.159-4.881-4.88a68.544,68.544,0,0,0-4.912,4.88h0Zm15.184,14.035a9.883,9.883,0,0,0,2.169,2.041q0.382,13.174.382,19.266v1.148a8.845,8.845,0,0,1-.382,2.3,3.792,3.792,0,0,1-2.042,2.041q5.614,5.359,7.4,6.38h0.256a44.916,44.916,0,0,0,7.528-6.252V51.772a7.056,7.056,0,0,0-1.532-1.531H247.94a2.2,2.2,0,0,0-1.531,1.148h-0.383a3.412,3.412,0,0,1-.638-0.51q-0.128-3.764-.127-4.849,0-5.1-.128-18.246l0.128-.255a11.276,11.276,0,0,0,2.169-2.424V24.85a48.908,48.908,0,0,0-6.507-4.721,26.82,26.82,0,0,0-5.869,4.849h0Zm1.212-14.035a68.429,68.429,0,0,0,4.912,4.912q0.159,0,4.88-4.912,0-.159-4.88-4.88a68.283,68.283,0,0,0-4.912,4.88h0Z"/>
</svg>
